<?xml version="1.0" encoding="UTF-8"?>
<svg id="Layer_1" data-name="Layer 1" xmlns="http://www.w3.org/2000/svg" version="1.1" viewBox="0 0 99.9 96">
  <defs>
    <style>
      .cls-1 {
        fill: #000;
        stroke-width: 0px;
      }
    </style>
  </defs>
  <path class="cls-1" d="M65.9,96h-31.8l-10.5-30.4,26.4-15.3,26.4,15.3-10.5,30.4ZM50,12.6l29-5.6-12.2-7h-33.6l-12.2,7.1,29,5.6h0ZM21.5,62.1l26.4-15.2v-30.5l-31.6-6.1L.4,37.8l21.1,24.3ZM52,16.3v30.5l26.5,15.2,21.1-24.3-15.9-27.5-31.6,6.1h0ZM99.9,43.4l-19.3,22.3-9.7,27.9,12.2-7.1,16.8-29.1v-14.1h0ZM29,93.6l-9.7-27.9L0,43.4v14.1l16.8,29.1,12.2,7.1h0Z"/>
</svg>