<?xml version="1.0" standalone="no"?>
<!DOCTYPE svg PUBLIC "-//W3C//DTD SVG 20010904//EN"
 "http://www.w3.org/TR/2001/REC-SVG-20010904/DTD/svg10.dtd">
<svg version="1.0" xmlns="http://www.w3.org/2000/svg"
 width="800.000000pt" height="800.000000pt" viewBox="0 0 800.000000 800.000000"
 preserveAspectRatio="xMidYMid meet">
<metadata>
Created by potrace 1.14, written by Peter Selinger 2001-2017
</metadata>
<g transform="translate(0.000000,800.000000) scale(0.100000,-0.100000)"
fill="#000000" stroke="none">
<path d="M2605 7812 c-27 -15 -52 -30 -55 -33 -3 -3 -36 -23 -75 -44 -38 -21
-73 -43 -77 -49 -4 -6 -8 -8 -8 -3 0 4 -17 -3 -37 -16 -21 -13 -69 -42 -108
-65 -275 -159 -432 -249 -445 -255 -8 -4 -28 -16 -45 -27 -16 -11 -38 -23 -47
-26 -24 -8 -23 -24 2 -25 11 -1 23 -2 28 -3 4 -1 27 -6 52 -10 25 -5 54 -10
65 -13 61 -13 173 -35 195 -38 14 -3 36 -7 50 -10 14 -3 52 -10 85 -16 33 -6
65 -12 70 -13 6 -2 28 -6 50 -10 35 -7 161 -32 206 -41 9 -2 34 -6 55 -9 22
-4 82 -15 134 -26 52 -11 111 -22 130 -25 19 -3 92 -17 161 -31 70 -13 139
-27 155 -29 16 -3 52 -10 79 -16 28 -6 57 -12 65 -13 8 -1 33 -6 55 -10 57
-11 224 -43 260 -50 17 -3 44 -8 60 -11 17 -2 41 -7 55 -10 65 -14 77 -16 104
-20 15 -2 36 -7 46 -10 10 -3 31 -7 46 -9 16 -2 41 -7 55 -11 15 -4 83 5 160
19 74 15 145 28 159 31 14 3 48 9 75 15 50 10 102 19 140 26 11 1 31 5 45 9
14 3 41 8 60 11 19 3 38 8 41 10 6 3 56 12 109 18 9 1 21 6 28 10 7 4 16 6 18
3 3 -3 20 -1 37 4 18 5 52 12 77 15 25 3 48 8 51 10 4 2 24 6 45 9 22 4 47 8
57 11 10 3 30 7 45 9 43 6 95 16 101 19 3 2 28 7 55 10 27 4 52 9 55 11 3 1
22 6 41 9 60 10 91 16 245 46 184 36 201 39 244 45 18 3 37 7 41 10 4 3 23 7
42 9 28 4 181 33 268 51 8 1 34 6 58 10 49 8 52 16 15 36 -16 7 -50 27 -78 43
-74 43 -115 66 -165 94 -25 13 -49 28 -55 32 -13 10 -264 154 -335 193 -30 17
-67 38 -82 49 -14 10 -28 18 -31 18 -3 0 -35 18 -71 40 -36 22 -70 40 -75 40
-5 0 -11 6 -13 13 -4 9 -287 12 -1364 14 l-1359 3 -50 -28z"/>
<path d="M1285 6981 c-14 -23 -25 -45 -25 -51 0 -5 -4 -10 -8 -10 -4 0 -13
-12 -20 -27 -6 -16 -20 -41 -30 -58 -10 -16 -30 -50 -44 -75 -14 -25 -73 -127
-132 -227 -58 -101 -106 -187 -106 -193 0 -5 -4 -10 -9 -10 -5 0 -15 -15 -22
-32 -7 -18 -17 -37 -22 -43 -12 -15 -237 -406 -237 -413 0 -3 -6 -13 -14 -21
-7 -9 -26 -41 -42 -71 -16 -30 -35 -61 -41 -68 -7 -7 -13 -20 -13 -28 0 -8 -4
-14 -10 -14 -5 0 -10 -5 -10 -10 0 -6 -21 -45 -46 -88 -47 -81 -52 -90 -93
-162 -14 -25 -31 -51 -38 -58 -7 -7 -13 -18 -13 -23 0 -5 -17 -37 -38 -71 -21
-35 -41 -70 -45 -78 -4 -8 -18 -33 -32 -55 -14 -22 -32 -53 -40 -70 -9 -16
-24 -43 -35 -60 -10 -16 -28 -47 -39 -67 -11 -20 -25 -45 -32 -56 -14 -22 -9
-31 58 -106 23 -26 62 -70 85 -98 24 -28 54 -63 68 -79 14 -15 39 -44 55 -63
17 -19 45 -52 64 -73 18 -21 61 -71 94 -110 34 -40 65 -73 69 -73 4 0 8 -4 8
-10 0 -5 10 -20 23 -33 19 -20 85 -96 150 -171 10 -12 30 -35 45 -52 15 -17
50 -57 77 -89 28 -32 55 -63 60 -69 6 -6 37 -42 70 -81 33 -38 62 -72 65 -75
3 -3 47 -54 99 -115 52 -60 103 -119 113 -130 49 -54 122 -138 187 -215 40
-47 87 -101 104 -121 18 -19 55 -62 82 -94 28 -31 62 -70 76 -86 l26 -28 44
27 c24 16 118 70 209 122 91 51 173 100 184 109 10 9 21 16 25 15 3 -1 23 10
43 22 21 13 40 24 42 24 3 0 46 25 97 55 50 30 93 55 95 55 3 0 95 53 154 90
8 5 38 21 65 36 28 14 62 35 77 45 14 11 28 19 31 19 3 0 55 29 116 65 60 36
114 65 120 65 6 0 11 5 11 10 0 6 4 10 8 10 5 0 75 38 156 85 81 47 151 85
156 85 5 0 10 4 12 8 2 5 28 22 58 39 127 69 175 98 178 105 2 4 7 8 12 8 4 0
56 27 114 61 72 41 106 66 105 78 -1 9 0 21 1 26 5 30 1 1135 -4 1144 -4 6 -3
11 3 11 6 0 6 11 1 30 -5 17 -5 32 0 35 5 3 6 15 1 27 -4 11 -4 40 -1 65 4 24
3 46 -1 49 -5 2 -4 16 1 29 6 15 6 27 0 30 -6 3 -6 15 0 30 6 15 6 27 0 30 -6
3 -6 15 0 30 6 15 6 27 0 30 -6 3 -6 15 0 30 6 15 6 27 0 30 -6 3 -6 15 0 30
6 15 6 27 0 30 -6 3 -6 15 0 30 6 15 6 27 0 30 -6 3 -6 15 0 30 6 15 6 27 0
30 -6 3 -6 15 0 30 6 15 6 27 0 30 -6 3 -6 15 0 30 6 15 6 27 0 30 -6 3 -6 15
0 30 6 15 6 27 0 30 -6 3 -6 15 0 30 6 15 6 27 0 30 -6 3 -6 15 0 30 6 15 6
27 0 30 -6 3 -6 15 0 30 5 14 5 27 0 30 -5 3 -5 18 0 35 5 17 5 30 1 30 -5 0
-5 15 -2 33 4 17 4 47 0 65 -4 17 -3 32 2 32 5 0 4 11 -1 25 -5 14 -6 25 -3
25 4 0 3 4 -3 9 -5 6 -36 14 -69 20 -69 12 -132 24 -182 35 -11 2 -43 8 -70
12 -26 5 -50 9 -53 9 -21 6 -89 19 -105 21 -11 1 -20 3 -20 4 0 1 -9 3 -20 5
-18 3 -139 26 -210 40 -16 4 -39 8 -51 10 -11 1 -45 8 -75 14 -30 6 -65 13
-79 15 -49 9 -235 45 -260 51 -28 5 -124 24 -155 30 -11 2 -32 6 -47 9 -16 3
-38 8 -50 10 -13 2 -39 7 -58 11 -19 3 -42 7 -50 9 -48 9 -89 17 -115 22 -44
8 -165 32 -200 38 -16 3 -43 9 -60 12 -16 4 -39 8 -50 9 -11 1 -27 5 -35 8 -8
3 -31 8 -50 11 -19 3 -48 8 -65 11 -33 8 -52 11 -109 19 -21 4 -41 8 -45 11
-4 2 -30 7 -57 10 -27 4 -58 9 -69 13 -11 3 -27 7 -35 8 -8 2 -29 6 -47 9 -29
5 -35 2 -58 -34z"/>
<path d="M6659 7016 c-2 -2 -24 -7 -49 -11 -25 -3 -52 -8 -60 -10 -8 -2 -31
-7 -50 -10 -19 -3 -53 -10 -75 -15 -22 -5 -56 -12 -75 -15 -19 -3 -69 -13
-110 -21 -41 -8 -86 -17 -100 -19 -14 -2 -95 -17 -180 -34 -85 -17 -171 -33
-190 -36 -19 -3 -54 -10 -78 -16 -23 -5 -59 -12 -80 -15 -20 -4 -41 -7 -47 -9
-5 -1 -28 -5 -50 -10 -22 -4 -49 -10 -60 -12 -31 -6 -57 -11 -90 -17 -16 -3
-43 -8 -60 -11 -69 -14 -334 -64 -370 -71 -16 -3 -48 -9 -70 -14 -22 -5 -56
-12 -75 -15 -19 -3 -114 -21 -210 -40 -219 -43 -220 -43 -250 -49 -14 -3 -44
-9 -67 -12 -71 -10 -96 -19 -99 -38 -1 -10 -5 -20 -8 -23 -2 -3 -1 -16 4 -29
5 -13 6 -25 2 -28 -9 -5 -6 -81 3 -95 3 -5 1 -12 -4 -16 -7 -3 -7 -15 -1 -30
6 -15 6 -27 0 -30 -6 -3 -6 -15 0 -30 6 -15 6 -27 0 -30 -6 -3 -6 -15 0 -30 6
-15 6 -27 0 -30 -6 -3 -6 -15 0 -30 6 -15 6 -27 0 -30 -6 -3 -6 -15 0 -30 6
-15 6 -27 0 -30 -6 -3 -6 -15 0 -30 6 -15 6 -27 0 -30 -6 -3 -6 -15 0 -30 6
-15 6 -27 0 -30 -6 -3 -6 -15 0 -30 6 -15 6 -27 0 -30 -5 -3 -6 -16 -2 -28 8
-24 7 -79 -2 -103 -3 -8 -2 -14 3 -14 5 0 5 -15 2 -32 -4 -18 -4 -52 -1 -75 4
-24 4 -43 -1 -43 -4 0 -3 -16 1 -35 4 -19 4 -35 -1 -35 -4 0 -5 -10 0 -22 4
-13 5 -35 0 -50 -4 -16 -4 -28 0 -28 5 0 5 -15 2 -32 -4 -18 -4 -52 -1 -75 4
-24 4 -43 -1 -43 -4 0 -3 -16 1 -35 4 -19 5 -35 1 -35 -7 0 -5 -86 4 -99 3 -5
1 -12 -4 -16 -7 -3 -7 -15 -1 -30 6 -15 6 -27 0 -30 -6 -3 -6 -15 0 -30 6 -15
6 -27 0 -30 -6 -3 -6 -15 0 -30 6 -15 6 -27 0 -30 -6 -3 -6 -15 0 -30 6 -15 6
-27 0 -30 -6 -3 -6 -15 0 -30 6 -15 6 -27 0 -30 -6 -3 -6 -15 0 -30 6 -15 6
-27 0 -30 -6 -3 -6 -15 0 -30 6 -15 6 -27 0 -30 -6 -3 -6 -15 0 -30 6 -15 6
-27 0 -30 -5 -3 -6 -16 -2 -28 8 -24 7 -79 -2 -103 -3 -8 -2 -14 3 -14 5 0 5
-15 2 -32 -4 -18 -4 -52 -1 -75 4 -24 4 -43 -1 -43 -4 0 -3 -16 1 -35 4 -19 4
-35 -1 -35 -4 0 -5 -10 0 -22 4 -13 5 -35 0 -50 -6 -22 -3 -30 15 -42 39 -25
338 -196 344 -196 3 0 13 -6 21 -14 9 -8 40 -27 70 -43 29 -15 60 -33 70 -38
9 -6 34 -21 56 -33 22 -12 56 -32 75 -43 19 -12 55 -32 80 -46 54 -29 83 -46
90 -53 6 -6 86 -50 117 -65 13 -5 23 -13 23 -17 0 -5 4 -8 9 -8 5 0 112 -59
237 -132 126 -72 243 -139 259 -148 170 -96 212 -121 222 -130 7 -5 14 -10 17
-10 2 0 80 -44 173 -98 92 -53 186 -106 207 -116 l40 -19 19 24 c19 25 111
130 137 158 8 9 28 32 44 51 31 37 127 148 163 187 11 13 36 42 55 65 18 23
38 46 43 52 6 6 56 63 110 126 55 63 104 120 110 126 9 10 62 71 124 144 29
34 111 128 136 156 11 12 40 46 65 75 25 29 65 75 90 103 24 28 51 59 60 70 8
10 22 26 31 35 8 9 42 48 75 86 72 84 106 124 119 139 6 6 39 45 75 86 36 41
70 80 75 86 6 6 33 37 60 70 28 32 59 67 69 78 19 19 18 20 -10 77 -16 32 -32
59 -36 59 -5 0 -8 4 -8 10 0 5 -75 139 -167 297 -91 158 -179 311 -195 338
-16 28 -32 58 -35 68 -3 9 -9 17 -14 17 -5 0 -9 5 -9 11 0 6 -13 30 -30 54
-16 24 -30 46 -30 50 0 3 -65 117 -144 253 -79 136 -151 261 -160 277 -9 17
-25 44 -35 60 -10 17 -29 51 -44 77 -14 25 -37 64 -51 87 -14 22 -26 45 -26
51 0 5 -5 10 -11 10 -5 0 -8 4 -4 9 3 5 1 12 -4 16 -8 5 -42 61 -170 288 -58
104 -83 132 -102 113z"/>
<path d="M0 3800 l0 -560 25 -40 c14 -22 25 -42 25 -45 0 -4 14 -26 30 -51 17
-24 29 -44 26 -44 -3 0 6 -16 19 -36 13 -19 27 -44 30 -55 4 -10 11 -19 16
-19 5 0 9 -5 9 -10 0 -6 83 -154 185 -329 102 -176 185 -324 185 -329 0 -6 4
-12 8 -14 4 -1 63 -100 131 -218 68 -118 132 -228 142 -245 11 -16 22 -36 26
-44 3 -8 51 -91 106 -185 54 -94 109 -189 122 -211 12 -22 55 -96 95 -165 100
-172 107 -185 131 -227 11 -21 26 -43 32 -50 10 -10 305 -185 347 -206 28 -14
58 -33 74 -46 9 -7 16 -11 16 -7 0 3 24 -9 53 -28 28 -18 73 -45 100 -59 26
-15 117 -67 201 -117 85 -49 161 -92 169 -96 11 -4 8 13 -13 75 -16 45 -26 81
-23 81 3 0 1 6 -5 13 -5 6 -24 55 -42 107 -43 127 -110 321 -117 340 -3 8 -7
20 -9 25 -2 9 -67 194 -180 520 -20 55 -37 105 -38 110 -2 6 -6 17 -9 25 -7
17 -36 100 -41 115 -2 6 -6 24 -11 40 -4 17 -10 35 -14 40 -3 6 -6 12 -7 15 0
3 -4 14 -8 25 -4 11 -13 34 -19 50 -6 17 -12 35 -13 40 -2 6 -36 107 -77 225
-41 118 -87 251 -103 295 -22 66 -39 94 -97 160 -38 44 -79 91 -91 105 -35 42
-140 164 -151 176 -5 6 -35 39 -65 74 -30 35 -64 74 -75 86 -11 12 -38 43 -60
70 -22 26 -45 52 -50 58 -6 6 -39 45 -75 86 -35 41 -69 80 -74 86 -6 6 -29 32
-51 59 -22 26 -49 58 -60 69 -17 18 -156 179 -220 255 -11 13 -31 36 -45 51
-14 15 -36 40 -49 56 -25 30 -139 161 -156 180 -5 6 -32 37 -60 69 -27 32 -61
72 -75 88 -14 16 -42 48 -62 70 -21 23 -38 45 -38 49 0 5 -4 8 -10 8 -7 0 -10
-193 -10 -560z"/>
<path d="M7962 4329 c-30 -38 -165 -194 -171 -199 -6 -5 -81 -92 -127 -148
-10 -13 -28 -34 -39 -46 -50 -57 -84 -96 -140 -161 -33 -38 -69 -79 -80 -91
-11 -12 -37 -42 -57 -66 -20 -23 -50 -58 -66 -76 -16 -18 -47 -54 -68 -79 -22
-26 -43 -51 -49 -57 -5 -6 -39 -45 -75 -86 -36 -41 -69 -80 -75 -86 -11 -12
-19 -21 -129 -149 -38 -44 -73 -81 -78 -83 -4 -2 -8 -8 -8 -13 0 -5 -12 -22
-27 -37 -16 -15 -48 -52 -73 -82 -25 -30 -52 -61 -60 -70 -8 -9 -54 -61 -101
-116 -76 -87 -94 -115 -105 -159 -2 -5 -22 -62 -44 -125 -23 -63 -43 -122 -45
-130 -2 -8 -29 -85 -59 -170 -31 -85 -56 -158 -56 -162 0 -4 -5 -19 -11 -35
-16 -39 -129 -365 -134 -383 -2 -8 -9 -28 -16 -45 -7 -16 -13 -32 -14 -35 -4
-19 -49 -147 -54 -155 -3 -5 -6 -14 -7 -20 -1 -5 -25 -76 -53 -156 -28 -80
-51 -149 -51 -153 0 -4 -6 -22 -14 -39 -8 -18 -25 -66 -39 -107 -14 -41 -55
-159 -91 -262 -36 -104 -62 -188 -60 -188 3 0 38 19 77 42 128 76 152 89 170
95 9 3 17 9 17 13 0 4 11 11 25 14 14 4 25 11 25 16 0 6 4 10 10 10 5 0 69 35
142 77 73 42 144 83 158 90 14 8 39 22 55 32 17 10 48 28 70 41 193 109 225
132 246 173 12 23 24 44 28 47 3 3 14 21 24 40 31 59 52 95 57 100 3 3 10 14
16 25 21 38 207 360 225 390 10 17 22 37 26 45 6 12 80 144 113 200 33 56 155
269 164 285 6 11 13 22 16 25 3 3 12 19 22 35 30 55 261 457 278 485 42 66
130 223 130 231 0 5 5 9 10 9 6 0 10 5 10 11 0 6 20 45 45 86 25 40 45 76 45
78 0 8 64 110 73 116 5 3 8 9 8 13 -1 3 5 19 13 35 13 24 15 113 15 580 0 356
-3 551 -9 551 -6 0 -18 -10 -28 -21z"/>
<path d="M3841 3724 c-79 -46 -148 -84 -152 -84 -4 0 -9 -3 -11 -7 -3 -8 -69
-46 -115 -68 -13 -5 -23 -13 -23 -17 0 -5 -5 -8 -10 -8 -6 0 -35 -15 -65 -34
-29 -19 -56 -32 -59 -29 -3 4 -6 2 -6 -4 0 -6 -8 -14 -17 -17 -10 -3 -27 -12
-38 -19 -11 -7 -51 -30 -90 -51 -38 -22 -81 -47 -95 -56 -14 -9 -56 -34 -95
-55 -38 -20 -77 -44 -86 -51 -8 -8 -18 -14 -22 -14 -6 0 -302 -169 -347 -198
-14 -9 -27 -17 -30 -17 -3 0 -16 -8 -30 -16 -68 -44 -413 -239 -421 -239 -5 0
-9 -4 -9 -10 0 -5 -4 -10 -9 -10 -9 0 -195 -104 -217 -122 -11 -8 -8 -22 41
-153 5 -11 9 -27 11 -35 2 -8 7 -23 12 -35 5 -11 15 -38 21 -60 7 -22 16 -49
21 -60 10 -23 69 -193 106 -305 14 -41 29 -84 34 -95 4 -11 27 -76 50 -145 24
-69 53 -153 66 -188 13 -34 24 -66 25 -70 2 -11 5 -20 48 -142 21 -63 47 -137
56 -165 50 -146 88 -254 135 -385 28 -80 53 -152 55 -160 2 -8 31 -94 65 -190
34 -96 67 -191 73 -210 l12 -35 1278 -3 c849 -1 1277 1 1278 8 3 22 25 92 39
125 9 21 90 252 94 270 2 6 6 17 9 25 3 8 15 44 27 80 12 36 25 72 28 80 3 8
6 17 7 20 1 3 5 12 8 20 4 8 20 56 36 105 17 50 53 155 81 235 29 80 58 168
67 195 8 28 18 55 21 60 4 6 7 15 8 20 3 15 114 337 124 360 9 19 112 319 145
420 9 28 19 57 22 65 4 8 7 17 8 20 1 3 5 12 8 20 7 17 97 281 100 293 2 8
-117 87 -130 87 -3 0 -17 8 -31 19 -25 17 -117 69 -169 95 -13 6 -23 14 -23
19 0 4 -5 7 -11 7 -9 0 -64 30 -199 110 -27 16 -124 73 -155 90 -214 122 -391
225 -395 229 -3 3 -21 14 -40 25 -66 35 -115 63 -203 114 -49 29 -91 52 -93
52 -3 0 -10 5 -17 10 -7 6 -52 34 -102 62 -178 101 -209 119 -273 157 -29 17
-57 31 -62 31 -6 0 -10 5 -10 10 0 6 -4 10 -9 10 -5 0 -48 23 -96 50 -48 28
-92 50 -98 49 -7 0 -77 -38 -156 -85z"/>
</g>
</svg>
